<?xml version="1.0" encoding="UTF-8"?>
<svg version="1.1" xmlns="http://www.w3.org/2000/svg" width="512" height="512">
<path d="M0 0 C1.03125 -0.00773437 2.0625 -0.01546875 3.125 -0.0234375 C6.52543706 0.44781872 7.67194929 0.85191804 10 3.375 C10.35542824 6.30002152 10.46653426 8.84285967 10.390625 11.76171875 C10.38496521 12.57872757 10.37930542 13.39573639 10.37347412 14.23750305 C10.35108697 16.84643203 10.30088846 19.45398636 10.25 22.0625 C10.22993792 23.83136037 10.21168664 25.60024227 10.1953125 27.36914062 C10.1512148 31.70495656 10.08217294 36.03974525 10 40.375 C11.24040039 40.36057861 12.48080078 40.34615723 13.75878906 40.33129883 C17.91594381 40.2829661 21.74185008 41.00277699 25.75 42.0625 C26.78979004 42.33259888 26.78979004 42.33259888 27.85058594 42.6081543 C50.2716031 48.65790086 69.33698302 62.01569254 81.08984375 82.25146484 C92.0003299 101.92237248 95.01713822 122.12246022 95.65478516 144.34057617 C95.90133296 152.47096402 96.65638197 160.35242631 98 168.375 C100.4639173 158.71858545 100.62855632 148.88873539 101.02905273 138.98632812 C101.6152715 124.94144012 103.01343579 111.119211 108.0625 97.875 C108.36212646 97.08585205 108.66175293 96.2967041 108.97045898 95.48364258 C117.68704429 73.55464168 133.94180703 56.18061351 155.65991211 46.77807617 C180.55757437 36.59600898 211.00990187 35.97911918 236 46.375 C244.92890705 50.29013598 252.7301236 54.77803778 260 61.375 C260.83144531 62.11363281 261.66289062 62.85226563 262.51953125 63.61328125 C281.3316249 81.26948589 290.52161081 107.20183378 291.34057617 132.60668945 C291.37256104 133.62335693 291.4045459 134.64002441 291.4375 135.6875 C293.04255936 176.87574478 305.20298175 215.180813 321.80419922 252.66845703 C329.26186074 269.54792532 335.10982317 286.10423178 338 304.375 C338.13277344 305.1690625 338.26554687 305.963125 338.40234375 306.78125 C343.23312794 341.19231546 332.12126215 378.0686624 311.79296875 405.7890625 C307.55864268 411.33687563 302.87098516 416.38699418 298 421.375 C297.28585937 422.15101563 296.57171875 422.92703125 295.8359375 423.7265625 C273.29910649 447.61391522 238.85224333 462.03158215 206.27661133 463.49755859 C166.15466809 464.60413956 133.045651 453.65917505 102 428.375 C100.67318815 427.36636326 99.34307271 426.36188068 98 425.375 C97.2471875 426.05304688 96.494375 426.73109375 95.71875 427.4296875 C65.15056852 454.43353688 27.39978187 465.54273023 -13 463.375 C-42.88876932 461.03163369 -70.25034888 448.56543151 -93 429.375 C-93.79921875 428.71113281 -94.5984375 428.04726563 -95.421875 427.36328125 C-121.94816094 404.51181518 -138.4199495 371.03776725 -142 336.375 C-142.27277796 331.5995846 -142.33498778 326.84500838 -142.3125 322.0625 C-142.30686035 320.792854 -142.3012207 319.52320801 -142.29541016 318.21508789 C-142.17151987 308.60745782 -141.40326843 299.66853802 -139 290.375 C-138.82791016 289.66311523 -138.65582031 288.95123047 -138.47851562 288.21777344 C-134.81549163 273.36646035 -128.51730585 259.61185896 -122.34165955 245.68310547 C-108.00946099 213.32126557 -96.71541536 178.83098701 -95.5625 143.25 C-94.52488886 112.29229526 -87.38624055 83.77190829 -64.34375 61.84765625 C-50.72320997 50.12998578 -32.17627925 40.28066281 -13.84521484 40.35864258 C-12.57629395 40.36404053 -11.30737305 40.36943848 -10 40.375 C-10.02094727 39.26987061 -10.04189453 38.16474121 -10.06347656 37.02612305 C-10.1358464 32.92811019 -10.18178836 28.83015386 -10.21972656 24.73168945 C-10.23984903 22.95750431 -10.2671503 21.18338554 -10.30175781 19.40942383 C-10.35024992 16.86002233 -10.37296153 14.31149705 -10.390625 11.76171875 C-10.41127014 10.96787277 -10.43191528 10.17402679 -10.45318604 9.35612488 C-10.45542483 3.86857781 -10.45542483 3.86857781 -8.15527344 1.37573242 C-5.32550794 0.06182114 -3.11349708 -0.02335123 0 0 Z " fill="#3F6F14" transform="translate(158,36.625)"/>
<path d="M0 0 C16.45848349 14.57468116 26.4703135 34.66996287 28.35058594 56.62841797 C28.54973063 61.35609832 28.6335034 66.08510248 28.72558594 70.81591797 C29.20334925 93.38811421 33.34890529 115.19657887 40.35058594 136.62841797 C40.69718262 137.70494629 41.0437793 138.78147461 41.40087891 139.890625 C47.38024447 158.31304773 54.53714183 175.9198562 62.35058594 193.62841797 C67.12157672 204.48247278 70.97043583 214.99079962 73.35058594 226.62841797 C73.57617188 227.70736328 73.80175781 228.78630859 74.03417969 229.89794922 C79.65564231 261.95967052 72.11096631 295.43476623 54.1171875 322.48242188 C37.24848964 346.4768032 14.25889586 363.0663293 -13.33691406 372.50341797 C-14.16731201 372.78991211 -14.99770996 373.07640625 -15.85327148 373.37158203 C-27.94602687 377.30430084 -40.15708785 378.03927963 -52.77441406 378.00341797 C-53.49797089 378.00287415 -54.22152771 378.00233032 -54.9670105 378.00177002 C-66.58295622 377.96173105 -77.51761453 377.13007141 -88.64941406 373.62841797 C-89.32101562 373.42474609 -89.99261719 373.22107422 -90.68457031 373.01123047 C-119.2703524 364.0885008 -144.98424414 344.09653206 -160.64941406 318.62841797 C-161.56400391 317.24009766 -161.56400391 317.24009766 -162.49707031 315.82373047 C-170.91679435 302.46320134 -175.29881797 286.94028183 -178.64941406 271.62841797 C-178.82448486 270.86134521 -178.99955566 270.09427246 -179.17993164 269.30395508 C-182.11035033 252.60376867 -180.28625276 233.85918036 -175.64941406 217.62841797 C-175.46169434 216.96680664 -175.27397461 216.30519531 -175.08056641 215.62353516 C-171.88199506 204.84226075 -167.07472316 194.64997517 -162.54620361 184.38119507 C-146.25780502 147.36934579 -133.93534028 108.57222209 -133.00073242 67.94458008 C-132.36170214 43.09247556 -125.51833266 20.40308411 -107.36035156 2.7578125 C-79.67213664 -22.79321833 -29.09956267 -24.19794895 0 0 Z " fill="#DDEC8A" transform="translate(406.6494140625,107.37158203125)"/>
<path d="M0 0 C1.03125 -0.00773437 2.0625 -0.01546875 3.125 -0.0234375 C6.52543706 0.44781872 7.67194929 0.85191804 10 3.375 C10.35542824 6.30002152 10.46653426 8.84285967 10.390625 11.76171875 C10.38496521 12.57872757 10.37930542 13.39573639 10.37347412 14.23750305 C10.35108697 16.84643203 10.30088846 19.45398636 10.25 22.0625 C10.22993792 23.83136037 10.21168664 25.60024227 10.1953125 27.36914062 C10.1512148 31.70495656 10.08217294 36.03974525 10 40.375 C11.24040039 40.36057861 12.48080078 40.34615723 13.75878906 40.33129883 C17.91594381 40.2829661 21.74185008 41.00277699 25.75 42.0625 C26.78979004 42.33259888 26.78979004 42.33259888 27.85058594 42.6081543 C44.26816949 47.03802556 62.07037024 55.69014907 72.15412903 70.01448059 C73.43881563 73.59957545 73.22057341 77.15586454 73.15112305 80.9128418 C73.14326782 81.77369385 73.1354126 82.6345459 73.12731934 83.52148438 C73.0987129 86.37260344 73.05541694 89.22329412 73.01171875 92.07421875 C72.98805872 94.06800953 72.96518789 96.06180981 72.94306946 98.05561829 C72.89449307 102.24462374 72.83915798 106.43346586 72.77856445 110.62231445 C72.70169605 115.94519945 72.63697735 121.26813678 72.57690716 126.59123516 C72.52970366 130.7172954 72.47805869 134.84329041 72.42493629 138.96927834 C72.3998092 140.92851541 72.37549229 142.88776307 72.3520565 144.8470211 C72.14941718 161.23546942 71.7238063 177.51763032 69.25 193.75 C69.0751709 194.90483887 68.9003418 196.05967773 68.72021484 197.24951172 C67.1504815 207.17369944 64.99163211 216.78576998 62 226.375 C61.77586426 227.0983252 61.55172852 227.82165039 61.32080078 228.56689453 C54.3298499 250.66461437 43.19731745 269.80425737 27 286.375 C26.18789062 287.24898438 25.37578125 288.12296875 24.5390625 289.0234375 C14.59864929 299.47856467 2.98494373 306.42228233 -10 312.375 C-11.04414063 312.87257813 -12.08828125 313.37015625 -13.1640625 313.8828125 C-22.4541744 317.76451785 -31.81598257 318.93388635 -41.8125 318.875 C-42.95033936 318.86927979 -44.08817871 318.86355957 -45.26049805 318.85766602 C-54.38090925 318.66469301 -61.68939064 317.3205417 -70 313.375 C-71.134375 312.85550781 -72.26875 312.33601563 -73.4375 311.80078125 C-81.03451313 308.0286532 -87.0511594 303.38527441 -93 297.375 C-94.04607422 296.37919922 -94.04607422 296.37919922 -95.11328125 295.36328125 C-104.66885822 285.6221591 -109.55136236 272.33299984 -113 259.375 C-113.32871094 258.27027344 -113.65742187 257.16554688 -113.99609375 256.02734375 C-118.66517322 239.04061492 -115.69284502 227.78679042 -109.22949219 211.61865234 C-101.53011078 191.30610641 -96.27650833 168.55177941 -95.71020508 146.79907227 C-94.84608473 114.6087323 -88.41119703 84.74712423 -64.34375 61.84765625 C-50.72320997 50.12998578 -32.17627925 40.28066281 -13.84521484 40.35864258 C-12.57629395 40.36404053 -11.30737305 40.36943848 -10 40.375 C-10.0314209 38.71730591 -10.0314209 38.71730591 -10.06347656 37.02612305 C-10.1358464 32.92811019 -10.18178836 28.83015386 -10.21972656 24.73168945 C-10.23984903 22.95750431 -10.2671503 21.18338554 -10.30175781 19.40942383 C-10.35024992 16.86002233 -10.37296153 14.31149705 -10.390625 11.76171875 C-10.41127014 10.96787277 -10.43191528 10.17402679 -10.45318604 9.35612488 C-10.45542483 3.86857781 -10.45542483 3.86857781 -8.15527344 1.37573242 C-5.32550794 0.06182114 -3.11349708 -0.02335123 0 0 Z " fill="#409015" transform="translate(158,36.625)"/>
<path d="M0 0 C23.31966712 15.57995002 37.9358731 40.73637519 43.71875 67.81640625 C46.97785462 87.63176234 43.10103123 108.33266494 31.77734375 125.0625 C20.01272707 140.80074433 4.19374087 152.25104759 -15.37109375 156.30859375 C-38.1122632 159.26199238 -58.32227498 154.9398354 -76.65625 140.94140625 C-89.84385997 129.67516992 -98.03955812 116.60457624 -102.28125 99.81640625 C-102.50554687 99.07390625 -102.72984375 98.33140625 -102.9609375 97.56640625 C-108.72415899 76.72407099 -101.07885763 52.64409949 -90.90625 34.37890625 C-87.25538252 28.03618679 -83.07938787 22.34874194 -78.28125 16.81640625 C-77.8275 16.21957031 -77.37375 15.62273437 -76.90625 15.0078125 C-58.42311791 -8.81122379 -25.82926541 -15.15570132 0 0 Z " fill="#923B18" transform="translate(384.28125,261.18359375)"/>
<path d="M0 0 C1.6035321 1.37258149 3.18688096 2.76906636 4.75 4.1875 C5.99716797 5.29544922 5.99716797 5.29544922 7.26953125 6.42578125 C26.0816249 24.08198589 35.27161081 50.01433378 36.09057617 75.41918945 C36.12256104 76.43585693 36.1545459 77.45252441 36.1875 78.5 C37.79255936 119.68824478 49.95298175 157.993313 66.55419922 195.48095703 C74.01186074 212.36042532 79.85982317 228.91673178 82.75 247.1875 C82.88277344 247.9815625 83.01554687 248.775625 83.15234375 249.59375 C87.98312794 284.00481546 76.87126215 320.8811624 56.54296875 348.6015625 C52.30864268 354.14937563 47.62098516 359.19949418 42.75 364.1875 C42.03585937 364.96351563 41.32171875 365.73953125 40.5859375 366.5390625 C18.04910649 390.42641522 -16.39775667 404.84408215 -48.97338867 406.31005859 C-87.48823548 407.37231513 -124.20456643 397.52029899 -153.25 371.1875 C-180.36132199 345.06350697 -199.55481228 310.26946532 -200.453125 271.9140625 C-200.78791177 242.17662807 -194.22893074 218.61208892 -181.83227539 191.57250977 C-176.5960295 180.03388155 -172.41734969 168.23047656 -168.31420898 156.24853516 C-167.29046504 153.30389153 -166.21653173 150.38248331 -165.12890625 147.4609375 C-157.06690373 125.37927631 -155.00210389 102.27386304 -154.0715332 78.97241211 C-153.504227 65.89695486 -151.88029861 52.99718994 -147.1875 40.6875 C-146.88787354 39.89835205 -146.58824707 39.1092041 -146.27954102 38.29614258 C-137.56295571 16.36714168 -121.30819297 -1.00688649 -99.59008789 -10.40942383 C-68.38961404 -23.1690684 -27.25519388 -21.14627111 0 0 Z M-119.4921875 21.890625 C-134.99890653 39.76387467 -139.17331919 61.98998577 -139.625 84.9375 C-140.11620939 107.29262894 -144.31638624 128.96401069 -151.25 150.1875 C-151.59659668 151.26402832 -151.94319336 152.34055664 -152.30029297 153.44970703 C-158.56242527 172.74333395 -166.1038246 191.20734353 -174.38085938 209.71630859 C-186.55454699 237.0129186 -191.398463 269.25539932 -182.25 298.1875 C-182.03037598 298.90292969 -181.81075195 299.61835938 -181.58447266 300.35546875 C-175.38553439 320.18505188 -165.6622381 337.1538387 -151.25 352.1875 C-150.03763672 353.51201172 -150.03763672 353.51201172 -148.80078125 354.86328125 C-137.31351911 367.00303362 -123.41423419 375.38807895 -108.25 382.1875 C-107.18523437 382.66960937 -106.12046875 383.15171875 -105.0234375 383.6484375 C-90.16973674 389.85314795 -75.52947041 391.56450883 -59.5625 391.625 C-58.87401978 391.6311734 -58.18553955 391.6373468 -57.47619629 391.64370728 C-44.04904197 391.72108396 -30.98475451 389.92981666 -18.25 385.5 C-17.50854736 385.24581299 -16.76709473 384.99162598 -16.00317383 384.72973633 C1.43631592 378.5345917 16.39491223 368.99792677 29.75 356.1875 C30.57113281 355.42953125 31.39226562 354.6715625 32.23828125 353.890625 C53.99972463 333.17833364 67.84315771 302.40386849 69.02734375 272.42578125 C69.59244989 248.23615261 64.18659446 227.34682526 54.75 205.1875 C43.55438872 178.77818283 32.68417084 152.35944411 26.75 124.1875 C26.54648926 123.23520508 26.34297852 122.28291016 26.13330078 121.30175781 C23.33146739 107.77519234 22.4070117 94.58660959 22.10107422 80.79003906 C21.4932904 56.24321003 14.34896425 33.81126374 -3.45776367 16.3190918 C-21.03482492 0.06974462 -43.85453683 -3.65043366 -66.95849609 -2.91748047 C-87.49677566 -1.97656206 -105.63171444 6.88702014 -119.4921875 21.890625 Z " fill="#409015" transform="translate(413.25,93.8125)"/>
<path d="M0 0 C16.45848349 14.57468116 26.4703135 34.66996287 28.35058594 56.62841797 C28.54973063 61.35609832 28.6335034 66.08510248 28.72558594 70.81591797 C29.20334925 93.38811421 33.34890529 115.19657887 40.35058594 136.62841797 C40.69718262 137.70494629 41.0437793 138.78147461 41.40087891 139.890625 C47.38024447 158.31304773 54.53714183 175.9198562 62.35058594 193.62841797 C67.12157672 204.48247278 70.97043583 214.99079962 73.35058594 226.62841797 C73.57617188 227.70736328 73.80175781 228.78630859 74.03417969 229.89794922 C79.65564231 261.95967052 72.11096631 295.43476623 54.1171875 322.48242188 C37.24848964 346.4768032 14.25889586 363.0663293 -13.33691406 372.50341797 C-14.16731201 372.78991211 -14.99770996 373.07640625 -15.85327148 373.37158203 C-27.94602687 377.30430084 -40.15708785 378.03927963 -52.77441406 378.00341797 C-53.49797089 378.00287415 -54.22152771 378.00233032 -54.9670105 378.00177002 C-66.58295622 377.96173105 -77.51761453 377.13007141 -88.64941406 373.62841797 C-89.32101562 373.42474609 -89.99261719 373.22107422 -90.68457031 373.01123047 C-119.2703524 364.0885008 -144.98424414 344.09653206 -160.64941406 318.62841797 C-161.56400391 317.24009766 -161.56400391 317.24009766 -162.49707031 315.82373047 C-170.91679435 302.46320134 -175.29881797 286.94028183 -178.64941406 271.62841797 C-178.82448486 270.86134521 -178.99955566 270.09427246 -179.17993164 269.30395508 C-182.11035033 252.60376867 -180.28625276 233.85918036 -175.64941406 217.62841797 C-175.46169434 216.96680664 -175.27397461 216.30519531 -175.08056641 215.62353516 C-171.88199506 204.84226075 -167.07472316 194.64997517 -162.54620361 184.38119507 C-146.25780502 147.36934579 -133.93534028 108.57222209 -133.00073242 67.94458008 C-132.36170214 43.09247556 -125.51833266 20.40308411 -107.36035156 2.7578125 C-79.67213664 -22.79321833 -29.09956267 -24.19794895 0 0 Z M-100.64941406 16.62841797 C-101.19855469 17.14533203 -101.74769531 17.66224609 -102.31347656 18.19482422 C-116.93289562 33.16604748 -118.78898187 54.79327572 -119.12072754 74.44381714 C-119.53005261 96.44637325 -123.92101556 117.72033666 -130.64941406 138.62841797 C-130.96894043 139.64548828 -131.2884668 140.66255859 -131.61767578 141.71044922 C-137.70956062 161.04241631 -144.96848869 179.82633655 -153.17285156 198.35888672 C-159.23671118 212.07552512 -165.33696786 226.40187288 -165.64941406 241.62841797 C-165.68591064 242.65974854 -165.68591064 242.65974854 -165.72314453 243.71191406 C-166.84746303 277.54621931 -155.43738246 306.68123973 -132.64941406 331.62841797 C-130.12771594 334.19461664 -127.50005825 336.43599544 -124.64941406 338.62841797 C-123.68003906 339.39541016 -122.71066406 340.16240234 -121.71191406 340.95263672 C-96.00113873 360.67900745 -65.01525218 367.13747566 -33.08300781 363.16748047 C-29.51240054 362.51267655 -26.12385096 361.67827633 -22.64941406 360.62841797 C-21.98474121 360.42974121 -21.32006836 360.23106445 -20.63525391 360.02636719 C9.11755808 350.92253863 33.7424062 331.489499 48.50854492 303.9375 C51.78438869 297.58467802 54.43398572 291.08366784 56.72558594 284.31591797 C57.08366333 283.25981323 57.08366333 283.25981323 57.44897461 282.18237305 C60.51319004 272.62844855 61.69868177 263.26595771 61.60058594 253.25341797 C61.59043457 251.74134766 61.59043457 251.74134766 61.58007812 250.19873047 C61.47829823 242.85164239 60.96904704 235.81326262 59.35058594 228.62841797 C59.11726562 227.51466797 58.88394531 226.40091797 58.64355469 225.25341797 C56.18286165 214.82637169 51.9500115 205.3653023 47.64648438 195.59472656 C39.06624305 175.95457358 31.78585745 156.05354423 25.35058594 135.62841797 C25.0748877 134.76990234 24.79918945 133.91138672 24.51513672 133.02685547 C18.26946363 113.39157261 15.12543886 93.00595234 14.78808594 72.44091797 C14.40653033 51.15247522 11.00097618 31.44101723 -4.50878906 15.66748047 C-5.21519531 14.99458984 -5.92160156 14.32169922 -6.64941406 13.62841797 C-7.21144531 13.05865234 -7.77347656 12.48888672 -8.35253906 11.90185547 C-20.26920376 0.62151753 -37.26870513 -3.00230088 -53.16162109 -2.77172852 C-71.92322092 -2.12793055 -87.26731911 2.87321628 -100.64941406 16.62841797 Z " fill="#A1CB42" transform="translate(406.6494140625,107.37158203125)"/>
<path d="M0 0 C4.11700968 3.48291667 5.90230853 7.47218256 8 12.3125 C8.34812744 13.1063208 8.69625488 13.9001416 9.05493164 14.71801758 C18.11070487 35.96123742 19.60474351 57.95920369 11.75 79.8125 C3.4664838 99.71254485 -11.52618658 113.76012344 -31.265625 122.00390625 C-48.47507244 128.2730621 -69.01159998 128.58546647 -85.92480469 121.15429688 C-104.75719754 112.37640768 -119.85282019 98.19791 -127.31640625 78.53125 C-128.31647105 75.37237375 -129.18849203 72.21186311 -130 69 C-130.22429687 68.2575 -130.44859375 67.515 -130.6796875 66.75 C-133.21508934 57.58087554 -132.84950086 46.25928455 -131 37 C-130.01 36.505 -130.01 36.505 -129 36 C-128.69449219 36.72703125 -128.38898438 37.4540625 -128.07421875 38.203125 C-123.18082009 48.95481783 -115.26668495 60.24621286 -104 65 C-81.18922756 72.67984459 -56.65901948 69.90927894 -35 60 C-18.70095508 51.71854256 -10.37861645 37.53125197 -4.76928711 20.72900391 C-2.62226199 13.92588756 -1.00322711 7.06751038 0 0 Z " fill="#7E3518" transform="translate(412,292)"/>
<path d="M0 0 C5.00479027 3.66230361 8.63564475 8.17175893 9.8203125 14.33203125 C10.30994047 22.26518008 9.22929631 29.48541833 7.5078125 37.20703125 C5.56953549 46.24803773 3.97074738 55.2232396 3.07299805 64.43115234 C2.21752118 71.67659268 -0.391054 77.0773914 -6.1171875 81.70703125 C-12.37951258 85.02989762 -18.11509884 86.3911736 -25.1796875 85.33203125 C-31.47933044 82.77930637 -35.83516175 78.23225125 -39.30004883 72.46826172 C-42.11435534 65.63362891 -40.02004129 56.34312035 -38.9921875 49.20703125 C-38.86199219 48.28341797 -38.73179688 47.35980469 -38.59765625 46.40820312 C-37.4877782 38.84589767 -36.13842611 31.33427276 -34.6796875 23.83203125 C-34.47835205 22.77612793 -34.2770166 21.72022461 -34.06958008 20.63232422 C-32.10597139 10.89225799 -29.15787638 5.33150265 -21.1796875 -0.66796875 C-14.78181398 -4.54036588 -6.30359559 -3.61116913 0 0 Z " fill="#9EE288" transform="translate(118.1796875,124.66796875)"/>
<path d="M0 0 C6.89812262 3.81620277 10.74993635 8.49980906 13.23046875 15.94140625 C14.01326895 22.44763089 13.08429067 27.58448076 9.23046875 32.94140625 C4.44704371 38.06071343 -0.97914582 41.99855189 -8.14453125 42.37890625 C-14.38383584 42.14782089 -18.7730761 39.57486956 -23.51953125 35.69140625 C-28.44045186 29.67694773 -30.5486312 24.49307608 -30.2109375 16.6171875 C-29.16108599 10.25304339 -25.61106169 6.37083585 -20.64453125 2.50390625 C-14.47336447 -1.90235486 -7.127077 -2.72417188 0 0 Z " fill="#9DE187" transform="translate(96.76953125,222.05859375)"/>
<path d="M0 0 C3.00645707 1.88777537 4.38479719 3.38657114 5.19921875 6.88671875 C5.49023165 11.00616808 5.53246149 13.62809058 2.88671875 16.9453125 C0.56581146 18.99707256 -1.80389857 20.87092655 -4.3125 22.6875 C-9.32419481 26.42170398 -11.9674853 30.05905702 -14.91796875 35.48046875 C-16.3125 37.6875 -16.3125 37.6875 -19.3125 39.6875 C-23.08938904 40.37093706 -26.78436889 40.53857095 -30.19921875 38.63671875 C-33.53592206 35.89787511 -35.11715806 33.9990816 -35.75 29.75 C-35.54325458 21.42849677 -29.52638089 14.43970683 -23.9375 8.8125 C-10.31726021 -4.08797102 -10.31726021 -4.08797102 0 0 Z " fill="#B96918" transform="translate(343.3125,271.3125)"/>
<path d="M0 0 C1.03125 -0.00773437 2.0625 -0.01546875 3.125 -0.0234375 C6.52543706 0.44781872 7.67194929 0.85191804 10 3.375 C10.35542824 6.30002152 10.46653426 8.84285967 10.390625 11.76171875 C10.38496521 12.57872757 10.37930542 13.39573639 10.37347412 14.23750305 C10.35108697 16.84643203 10.30088846 19.45398636 10.25 22.0625 C10.22993792 23.83136037 10.21168664 25.60024227 10.1953125 27.36914062 C10.15461572 31.70538237 10.07633667 36.03865323 10 40.375 C3.4 40.375 -3.2 40.375 -10 40.375 C-10.09180995 35.15968472 -10.1714485 29.94716892 -10.21972656 24.73168945 C-10.23984903 22.95750431 -10.2671503 21.18338554 -10.30175781 19.40942383 C-10.35024992 16.86002233 -10.37296153 14.31149705 -10.390625 11.76171875 C-10.41127014 10.96787277 -10.43191528 10.17402679 -10.45318604 9.35612488 C-10.45542483 3.86857781 -10.45542483 3.86857781 -8.15527344 1.37573242 C-5.32550794 0.06182114 -3.11349708 -0.02335123 0 0 Z " fill="#406D15" transform="translate(158,36.625)"/>
<path d="M0 0 C3.3938591 2.6472101 4.5847922 4.05890353 5.46875 8.19140625 C5.73444782 12.11709154 5.32027083 15.24607299 3.125 18.5625 C-0.68548501 21.53467831 -2.89210972 21.81001523 -7.62109375 21.53515625 C-11.21651623 20.72633379 -12.85664862 18.90389542 -15 16 C-16.5547669 12.89046621 -16.28644437 10.43733239 -16 7 C-11.99678491 -0.20578717 -7.9765368 -1.27724765 0 0 Z " fill="#B96918" transform="translate(312,313)"/>
</svg>
