<?xml version="1.0" encoding="UTF-8"?>
<svg version="1.1" xmlns="http://www.w3.org/2000/svg" width="512" height="512">
<path d="M0 0 C1.08223846 0.00027191 2.16447693 0.00054382 3.2795105 0.00082397 C91.28086526 0.1009411 199.63269428 3.4198224 292.8125 71.1875 C293.41449219 71.72503906 294.01648438 72.26257813 294.63671875 72.81640625 C302.92612775 80.5261363 309.275412 90.18521399 313.8125 100.5 C314.0909375 101.13284912 314.369375 101.76569824 314.65625 102.41772461 C318.39852069 111.43776643 319.11071669 120.04389017 319.10302734 129.74951172 C319.11310318 131.59301964 319.11310318 131.59301964 319.12338257 133.47377014 C319.13905351 136.82365589 319.14573369 140.17329351 319.14701414 143.5231986 C319.14844382 145.62649035 319.15272901 147.72975674 319.15800858 149.83304214 C319.17648194 157.2012113 319.18468365 164.56930846 319.18310547 171.9375 C319.18190874 178.75445773 319.20292533 185.57109646 319.2345928 192.38797367 C319.26096145 198.27886403 319.27146406 204.16965166 319.27019465 210.0606004 C319.26969048 213.56166201 319.27506345 217.06244056 319.29655075 220.56344223 C319.4821503 253.10583709 313.8426724 281.45969997 290.55078125 305.44921875 C254.98279841 341.01720159 203.99481198 350.03625381 155.375 350.375 C125.31666984 350.33457025 96.60036159 345.68608282 67.8125 337.1875 C66.99088379 336.94805664 66.16926758 336.70861328 65.32275391 336.46191406 C21.05803464 323.35278379 -20.59187512 297.1079644 -52.375 263.75 C-63.47054329 252.57474735 -77.27996145 244.39140486 -91.1875 237.1875 C-91.91662598 236.80464844 -92.64575195 236.42179688 -93.39697266 236.02734375 C-103.10722033 230.98392392 -112.62031704 227.29120885 -123.19213867 224.4909668 C-142.03055804 219.37820343 -159.13243816 210.59976006 -174.1875 198.1875 C-175.09048828 197.50300781 -175.09048828 197.50300781 -176.01171875 196.8046875 C-184.69024475 189.97888053 -192.05291574 179.5547108 -193.56048584 168.43684387 C-193.70350041 165.44154247 -193.72837078 162.46932847 -193.70507812 159.47070312 C-193.7120874 158.34413803 -193.71909668 157.21757294 -193.72631836 156.05686951 C-193.74381614 152.36057338 -193.73230404 148.66505291 -193.71875 144.96875 C-193.72144725 142.38382827 -193.72533161 139.79890753 -193.73034668 137.21398926 C-193.73623065 131.80742751 -193.72810023 126.40115326 -193.70898438 120.99462891 C-193.68722005 114.76761616 -193.69427318 108.54112751 -193.71629 102.31412745 C-193.73671539 96.29340616 -193.73444408 90.2729387 -193.72276306 84.25218201 C-193.72010395 81.70381089 -193.72333667 79.1554263 -193.73268127 76.60707092 C-193.74289493 73.03912456 -193.72727676 69.47216982 -193.70507812 65.90429688 C-193.71317505 64.86192368 -193.72127197 63.81955048 -193.72961426 62.74559021 C-193.60527892 51.90138386 -190.13912793 44.26556393 -182.6484375 36.49609375 C-153.81072505 9.44357303 -104.33990361 5.65285488 -67.0625 2.5 C-66.35405945 2.43915222 -65.6456189 2.37830444 -64.91571045 2.31561279 C-43.31939095 0.49245319 -21.66569178 -0.02087802 0 0 Z " fill="#FEFCFC" transform="translate(193.1875,80.8125)"/>
<path d="M0 0 C1.08223846 0.00027191 2.16447693 0.00054382 3.2795105 0.00082397 C91.28086526 0.1009411 199.63269428 3.4198224 292.8125 71.1875 C293.41449219 71.72503906 294.01648438 72.26257813 294.63671875 72.81640625 C302.92612775 80.5261363 309.275412 90.18521399 313.8125 100.5 C314.0909375 101.13284912 314.369375 101.76569824 314.65625 102.41772461 C318.39852069 111.43776643 319.11071669 120.04389017 319.10302734 129.74951172 C319.11310318 131.59301964 319.11310318 131.59301964 319.12338257 133.47377014 C319.13905351 136.82365589 319.14573369 140.17329351 319.14701414 143.5231986 C319.14844382 145.62649035 319.15272901 147.72975674 319.15800858 149.83304214 C319.17648194 157.2012113 319.18468365 164.56930846 319.18310547 171.9375 C319.18190874 178.75445773 319.20292533 185.57109646 319.2345928 192.38797367 C319.26096145 198.27886403 319.27146406 204.16965166 319.27019465 210.0606004 C319.26969048 213.56166201 319.27506345 217.06244056 319.29655075 220.56344223 C319.4821503 253.10583709 313.8426724 281.45969997 290.55078125 305.44921875 C254.98279841 341.01720159 203.99481198 350.03625381 155.375 350.375 C125.31666984 350.33457025 96.60036159 345.68608282 67.8125 337.1875 C66.99088379 336.94805664 66.16926758 336.70861328 65.32275391 336.46191406 C21.05803464 323.35278379 -20.59187512 297.1079644 -52.375 263.75 C-63.47054329 252.57474735 -77.27996145 244.39140486 -91.1875 237.1875 C-91.91662598 236.80464844 -92.64575195 236.42179688 -93.39697266 236.02734375 C-103.10722033 230.98392392 -112.62031704 227.29120885 -123.19213867 224.4909668 C-142.03055804 219.37820343 -159.13243816 210.59976006 -174.1875 198.1875 C-175.09048828 197.50300781 -175.09048828 197.50300781 -176.01171875 196.8046875 C-184.69024475 189.97888053 -192.05291574 179.5547108 -193.56048584 168.43684387 C-193.70350041 165.44154247 -193.72837078 162.46932847 -193.70507812 159.47070312 C-193.7120874 158.34413803 -193.71909668 157.21757294 -193.72631836 156.05686951 C-193.74381614 152.36057338 -193.73230404 148.66505291 -193.71875 144.96875 C-193.72144725 142.38382827 -193.72533161 139.79890753 -193.73034668 137.21398926 C-193.73623065 131.80742751 -193.72810023 126.40115326 -193.70898438 120.99462891 C-193.68722005 114.76761616 -193.69427318 108.54112751 -193.71629 102.31412745 C-193.73671539 96.29340616 -193.73444408 90.2729387 -193.72276306 84.25218201 C-193.72010395 81.70381089 -193.72333667 79.1554263 -193.73268127 76.60707092 C-193.74289493 73.03912456 -193.72727676 69.47216982 -193.70507812 65.90429688 C-193.71317505 64.86192368 -193.72127197 63.81955048 -193.72961426 62.74559021 C-193.60527892 51.90138386 -190.13912793 44.26556393 -182.6484375 36.49609375 C-153.81072505 9.44357303 -104.33990361 5.65285488 -67.0625 2.5 C-66.35405945 2.43915222 -65.6456189 2.37830444 -64.91571045 2.31561279 C-43.31939095 0.49245319 -21.66569178 -0.02087802 0 0 Z M-61.1875 9.1875 C-63.07686279 9.34025391 -63.07686279 9.34025391 -65.00439453 9.49609375 C-124.3387801 13.85428212 -124.3387801 13.85428212 -174.7890625 42.42578125 C-180.66949993 49.83381835 -182.04205866 56.88643395 -181.1875 66.1875 C-177.84003035 80.3236298 -165.79348625 90.79319619 -154 98.25 C-141.47098177 105.68864878 -128.45647557 112.22426649 -114.23706055 115.65039062 C-94.11710998 120.61995291 -74.91822703 131.08680037 -58.1875 143.1875 C-57.59259766 143.6117627 -56.99769531 144.03602539 -56.38476562 144.47314453 C-48.15128025 150.41275733 -41.03461964 157.18462466 -33.93066406 164.42016602 C-28.64772723 169.78688792 -23.20071429 174.64147959 -17.1875 179.1875 C-16.50316895 179.71053711 -15.81883789 180.23357422 -15.11376953 180.77246094 C-4.84814794 188.59658825 5.48931821 195.97636417 16.8125 202.1875 C17.65264648 202.64866211 18.49279297 203.10982422 19.35839844 203.58496094 C46.86770699 218.55197235 74.17699879 228.78440425 104.8125 235.1875 C105.65828613 235.36732422 106.50407227 235.54714844 107.37548828 235.73242188 C122.72786531 238.77273079 138.26181505 239.57105751 153.875 239.5 C155.13751587 239.49726578 155.13751587 239.49726578 156.42553711 239.49447632 C198.4848187 239.34222418 243.33211571 231.93901842 275.8125 203.1875 C276.65167969 202.44886719 277.49085938 201.71023438 278.35546875 200.94921875 C297.60096882 182.82996137 307.36946234 155.88859751 308.1875 129.875 C307.83114308 110.59213116 299.83641752 93.21325733 286.8125 79.1875 C286.01457031 78.29804688 285.21664063 77.40859375 284.39453125 76.4921875 C248.82099548 38.71212379 189.99317662 25.1064876 140.8125 17.1875 C139.62221191 16.98914551 138.43192383 16.79079102 137.20556641 16.58642578 C114.68081566 12.86563102 92.19329268 10.69474379 69.40887451 9.34179688 C66.82332003 9.18814301 64.23808772 9.02968563 61.65283203 8.87109375 C20.76811613 6.40589112 -20.33848016 5.852466 -61.1875 9.1875 Z " fill="#D15241" transform="translate(193.1875,80.8125)"/>
<path d="M0 0 C24.07136196 9.27121151 50.14163804 16.66152436 75.18359375 5.58984375 C78.6451358 3.94609473 82.04215974 2.18922337 85.43359375 0.40625 C94.76402993 -4.48055098 103.31732294 -7.37797988 113.75 -4.5 C114.925625 -4.005 114.925625 -4.005 116.125 -3.5 C113.83906604 4.37192532 110.27705794 11.15969023 106.3125 18.3125 C94.04548241 38.11697622 94.04548241 38.11697622 91.125 60.5 C92.29533115 64.08847182 93.6049505 67.57587872 95.03125 71.0703125 C96.58367292 75.93826724 96.67728153 79.8431554 95.0625 84.6875 C91.31722 90.12419678 85.4304644 92.25626847 79.125 93.5 C65.02821187 94.76413852 50.94318097 93.23539399 37.125 90.5 C35.97854004 90.27425293 34.83208008 90.04850586 33.65087891 89.81591797 C-3.65563464 82.29448257 -54.51433338 69.13351379 -78.33203125 36.50390625 C-82.48288345 30.17595002 -84.80640102 24.20659233 -83.875 16.5 C-81.25592963 7.87247406 -75.00467282 1.56921674 -67.48046875 -3.18359375 C-62.52538331 -5.68713767 -57.22889417 -7.1023971 -51.875 -8.5 C-51.21628906 -8.69464844 -50.55757812 -8.88929688 -49.87890625 -9.08984375 C-32.96352476 -12.55205633 -15.49182178 -6.05170174 0 0 Z " fill="#E56353" transform="translate(268.875,215.5)"/>
<path d="M0 0 C11.50505689 3.9554869 21.69422134 4.84998888 33.79296875 4.84375 C35.74130615 4.8447168 35.74130615 4.8447168 37.72900391 4.84570312 C44.46799629 4.80868956 51.0595772 4.62459168 57.73046875 3.65625 C64.46431069 2.70398952 71.05455495 2.43211309 77.85546875 2.40625 C78.81179199 2.39722656 79.76811523 2.38820312 80.75341797 2.37890625 C94.48482377 2.43659113 107.4059346 6.5300193 117.85546875 15.65625 C118.42523438 16.11 118.995 16.56375 119.58203125 17.03125 C126.1600421 22.79827321 129.86947646 31.010141 133.85546875 38.65625 C134.22623535 39.35250488 134.59700195 40.04875977 134.97900391 40.76611328 C138.64331631 47.80575447 140.00425537 54.7039698 138.85546875 62.65625 C135.50077512 69.99696337 129.04930457 73.74167278 121.98046875 76.96875 C113.45618188 78.84409311 107.63375849 77.73378451 100.35546875 73.09375 C69.51216065 54.77443805 36.80717504 55.38675149 2.10546875 58.09375 C1.23732544 58.1611438 0.36918213 58.2285376 -0.52526855 58.29797363 C-3.01860491 58.49421663 -5.51134319 58.69652779 -8.00390625 58.90234375 C-8.75188477 58.96282394 -9.49986328 59.02330414 -10.27050781 59.08561707 C-13.96365081 59.40172246 -17.51509825 59.92914329 -21.14453125 60.65625 C-35.66186887 61.56401341 -49.95979818 60.84781494 -64.14453125 57.65625 C-65.11390625 57.4396875 -66.08328125 57.223125 -67.08203125 57 C-78.91958811 53.89264132 -89.64020953 47.12139178 -96.64453125 37.03125 C-99.95995007 31.04710119 -100.37658896 25.33618193 -99.14453125 18.65625 C-94.84623328 8.0151453 -84.49919957 2.32703051 -74.48828125 -2.05859375 C-50.09670382 -11.43339395 -24.02691932 -8.34324117 0 0 Z " fill="#E56354" transform="translate(329.14453125,143.34375)"/>
<path d="M0 0 C1.08223846 0.00027191 2.16447693 0.00054382 3.2795105 0.00082397 C91.28086526 0.1009411 199.63269428 3.4198224 292.8125 71.1875 C293.41449219 71.72503906 294.01648438 72.26257813 294.63671875 72.81640625 C302.92612775 80.5261363 309.275412 90.18521399 313.8125 100.5 C314.0909375 101.13284912 314.369375 101.76569824 314.65625 102.41772461 C318.17470355 110.89829717 319.17896119 119.0472457 319.125 128.1875 C319.11654053 129.69872437 319.11654053 129.69872437 319.10791016 131.24047852 C318.6326133 160.88535505 306.32927872 185.60784597 285.51171875 206.49609375 C270.8155345 220.37448706 252.03858859 229.41837907 232.93505859 235.50830078 C231.56168459 235.94776782 230.19185881 236.39855158 228.82666016 236.86279297 C208.09434002 243.88012391 184.59645327 245.67780425 162.8125 246.1875 C161.59691406 246.22746094 160.38132812 246.26742187 159.12890625 246.30859375 C94.28440199 247.45568696 28.83752601 226.49042665 -22.1875 186.1875 C-23.02152344 185.54554688 -23.85554687 184.90359375 -24.71484375 184.2421875 C-33.53525418 177.35864445 -41.6907619 169.81032421 -49.4375 161.75 C-68.66674979 142.46596602 -94.89401311 127.90979988 -121.21850586 121.18310547 C-146.48337279 114.48995432 -173.12801848 100.19155857 -188.0625 78.1875 C-192.78869792 70.04339423 -194.76701897 60.92678093 -192.6015625 51.6875 C-188.0830633 38.42218124 -176.40905908 30.2031084 -164.38989258 24.15991211 C-134.28618283 9.60091318 -100.01528659 5.28708665 -67.0625 2.5 C-66.35405945 2.43915222 -65.6456189 2.37830444 -64.91571045 2.31561279 C-43.31939095 0.49245319 -21.66569178 -0.02087802 0 0 Z M-61.1875 9.1875 C-63.07686279 9.34025391 -63.07686279 9.34025391 -65.00439453 9.49609375 C-124.3387801 13.85428212 -124.3387801 13.85428212 -174.7890625 42.42578125 C-180.66949993 49.83381835 -182.04205866 56.88643395 -181.1875 66.1875 C-177.84003035 80.3236298 -165.79348625 90.79319619 -154 98.25 C-141.47098177 105.68864878 -128.45647557 112.22426649 -114.23706055 115.65039062 C-94.11710998 120.61995291 -74.91822703 131.08680037 -58.1875 143.1875 C-57.59259766 143.6117627 -56.99769531 144.03602539 -56.38476562 144.47314453 C-48.15128025 150.41275733 -41.03461964 157.18462466 -33.93066406 164.42016602 C-28.64772723 169.78688792 -23.20071429 174.64147959 -17.1875 179.1875 C-16.50316895 179.71053711 -15.81883789 180.23357422 -15.11376953 180.77246094 C-4.84814794 188.59658825 5.48931821 195.97636417 16.8125 202.1875 C17.65264648 202.64866211 18.49279297 203.10982422 19.35839844 203.58496094 C46.86770699 218.55197235 74.17699879 228.78440425 104.8125 235.1875 C105.65828613 235.36732422 106.50407227 235.54714844 107.37548828 235.73242188 C122.72786531 238.77273079 138.26181505 239.57105751 153.875 239.5 C155.13751587 239.49726578 155.13751587 239.49726578 156.42553711 239.49447632 C198.4848187 239.34222418 243.33211571 231.93901842 275.8125 203.1875 C276.65167969 202.44886719 277.49085938 201.71023438 278.35546875 200.94921875 C297.60096882 182.82996137 307.36946234 155.88859751 308.1875 129.875 C307.83114308 110.59213116 299.83641752 93.21325733 286.8125 79.1875 C286.01457031 78.29804688 285.21664063 77.40859375 284.39453125 76.4921875 C248.82099548 38.71212379 189.99317662 25.1064876 140.8125 17.1875 C139.62221191 16.98914551 138.43192383 16.79079102 137.20556641 16.58642578 C114.68081566 12.86563102 92.19329268 10.69474379 69.40887451 9.34179688 C66.82332003 9.18814301 64.23808772 9.02968563 61.65283203 8.87109375 C20.76811613 6.40589112 -20.33848016 5.852466 -61.1875 9.1875 Z " fill="#E56555" transform="translate(193.1875,80.8125)"/>
<path d="M0 0 C3.95418304 3.54037319 7.81272782 7.93276024 8.14770508 13.41918945 C8.10540771 14.30823975 8.06311035 15.19729004 8.01953125 16.11328125 C7.98730469 17.10706787 7.95507812 18.10085449 7.921875 19.12475586 C7.88578125 20.17671143 7.8496875 21.22866699 7.8125 22.3125 C7.62643805 31.45758148 8.55874875 38.46789681 11.8671875 46.9375 C13.7323374 51.97983629 14.13432752 56.06920162 12.18359375 61.109375 C7.97674783 68.90743085 0.90103957 72.60964138 -7.25 75.375 C-38.6666604 83.37258165 -67.00615531 68.77647517 -93.29736328 53.19384766 C-95.265639 52.01880088 -97.23310801 50.84240159 -99.19970703 49.66455078 C-101.82621263 48.10330273 -104.46787932 46.57389828 -107.12109375 45.05859375 C-107.8987207 44.61193359 -108.67634766 44.16527344 -109.47753906 43.70507812 C-110.89438964 42.8924082 -112.31407967 42.08465713 -113.73730469 41.28320312 C-117.74503292 38.96304786 -120.83155718 36.43884796 -124 33 C-124.33 32.67 -124.66 32.34 -125 32 C-125.625 28.8125 -125.625 28.8125 -125 25 C-118.95253896 19.25797581 -110.41327238 16.40759243 -102.8125 13.375 C-101.54666238 12.86278652 -100.28112467 12.34983131 -99.01586914 11.83618164 C-96.36928341 10.76382546 -93.72022081 9.697912 -91.06933594 8.63623047 C-87.66572018 7.27124406 -84.27097559 5.88562448 -80.87892151 4.4921875 C-78.21036733 3.39700877 -75.53881013 2.3092977 -72.86654663 1.22320557 C-70.99305686 0.46012845 -69.12209634 -0.30914923 -67.2512207 -1.07861328 C-44.99050684 -10.05051853 -21.25527198 -13.52036531 0 0 Z " fill="#E56354" transform="translate(196,132)"/>
<path d="M0 0 C0.95189209 0.05760498 1.90378418 0.11520996 2.88452148 0.17456055 C21.3641563 1.46868599 39.71920816 4.82952429 57.85693359 8.50439453 C60.32567431 9.00265896 62.79729634 9.48425338 65.26953125 9.96484375 C74.28824098 11.75219787 83.00052268 13.97623758 91.734375 16.84765625 C94.82954545 17.84446333 97.91166519 18.70328891 101.0625 19.5 C107.06233633 21.10055246 112.63142802 23.51972711 118.3125 26 C119.56699391 26.53033896 120.82223125 27.05892207 122.078125 27.5859375 C131.90950916 31.73133944 131.90950916 31.73133944 135.3125 34 C134.74609375 35.87109375 134.74609375 35.87109375 133.3125 38 C130.93158227 38.91242912 128.84356648 39.52980934 126.375 40.0625 C125.66408203 40.22459961 124.95316406 40.38669922 124.22070312 40.55371094 C121.92266041 41.06183594 119.61961103 41.53490728 117.3125 42 C116.57757324 42.15388184 115.84264648 42.30776367 115.08544922 42.46630859 C90.86942863 47.40562922 69.23905062 45.14728094 45.94873047 37.42553711 C44.59739014 36.9789978 44.59739014 36.9789978 43.21875 36.5234375 C42.41759766 36.25450684 41.61644531 35.98557617 40.79101562 35.70849609 C34.71550294 33.97178039 29.0075077 33.9154325 22.75 34.04296875 C20.88282302 34.06534915 19.01563478 34.08680541 17.1484375 34.10742188 C14.22527359 34.14453908 11.30268965 34.18769846 8.37988281 34.24682617 C5.54483691 34.30141964 2.7104409 34.33043039 -0.125 34.35546875 C-0.99390869 34.37925095 -1.86281738 34.40303314 -2.75805664 34.42753601 C-8.38256196 34.45171653 -11.32193058 33.59405263 -15.6875 30 C-15.5 28.25 -15.5 28.25 -14.6875 26 C-13.841875 25.360625 -12.99625 24.72125 -12.125 24.0625 C-9.46395718 22.26640868 -9.46395718 22.26640868 -9.3125 19.62109375 C-9.89271026 15.56566577 -12.40217883 13.81972573 -15.25390625 11.0625 C-16.6875 9 -16.6875 9 -16.77734375 6.5 C-13.5668151 -0.86465353 -6.86755627 -0.50657737 0 0 Z " fill="#E56454" transform="translate(280.6875,97)"/>
<path d="M0 0 C3.36961773 0.01635135 6.7380802 -0.00009224 10.10766602 -0.01904297 C12.2710801 -0.01706461 14.43449347 -0.01322942 16.59790039 -0.00732422 C17.5947435 -0.01339691 18.59158661 -0.0194696 19.61863708 -0.02572632 C24.97833476 0.02860872 28.71893045 0.43313591 33.38305664 3.39111328 C33.75805664 5.57861328 33.75805664 5.57861328 33.38305664 8.39111328 C29.44282926 12.19019819 26.16246811 14.17577001 20.88305664 15.82861328 C20.24924072 16.0290625 19.6154248 16.22951172 18.96240234 16.43603516 C10.39753038 19.0916835 1.71342028 21.36152303 -6.94799805 23.67675781 C-13.03982475 25.3072632 -19.12037805 26.97442397 -25.18579102 28.70068359 C-26.91341544 29.19131644 -28.64240726 29.67714557 -30.37231445 30.15966797 C-48.95915491 35.37582403 -68.57602004 41.2254446 -80.61694336 57.39111328 C-82.0637566 60.28473977 -82.04936712 63.19941418 -82.33569336 66.39501953 C-82.61694336 68.39111328 -82.61694336 68.39111328 -83.61694336 69.39111328 C-88.84798484 70.28150332 -91.42283197 69.19166484 -95.80444336 66.20361328 C-99.29387672 63.5706772 -102.23683815 61.1040774 -104.61694336 57.39111328 C-105.19444336 56.50423828 -105.77194336 55.61736328 -106.36694336 54.70361328 C-108.54497538 48.93182842 -108.27706162 43.64328147 -106.55444336 37.76611328 C-97.28540617 21.62004849 -79.49121523 13.03652712 -62.17944336 8.01611328 C-59.99524653 7.46127707 -57.80791334 6.91856902 -55.61694336 6.39111328 C-54.69655273 6.12943359 -53.77616211 5.86775391 -52.82788086 5.59814453 C-35.52514622 0.79724492 -17.86042986 -0.10335437 0 0 Z " fill="#E56454" transform="translate(130.616943359375,100.60888671875)"/>
<path d="M0 0 C3.43683255 3.34069737 4.54660888 6.22814122 4.80078125 11.00390625 C4.1512994 21.3532584 -2.70265986 28.69558083 -9.88671875 35.62890625 C-19.1965591 43.70177481 -30.00726545 51.35955839 -42.765625 51.23046875 C-45.75608289 50.38234626 -46.95220759 49.04197573 -48.88671875 46.62890625 C-53.40938261 36.95543078 -55.01103244 25.54695423 -51.8515625 15.2578125 C-48.32678739 7.39334214 -43.42971288 2.08941025 -35.51953125 -1.421875 C-33.32219815 -2.20240915 -31.15335209 -2.82831757 -28.88671875 -3.37109375 C-27.49453125 -3.71140625 -27.49453125 -3.71140625 -26.07421875 -4.05859375 C-17.01109191 -4.9471356 -7.69753677 -5.59386212 0 0 Z " fill="#E56454" transform="translate(447.88671875,235.37109375)"/>
<path d="M0 0 C3.13667808 2.30209766 4.09670585 4.0153068 4.6875 7.85546875 C4.0124149 12.91860698 2.01757752 15.33648539 -1.8125 18.60546875 C-9.42045971 23.55448496 -17.80949401 25.49727595 -26.8125 24.60546875 C-32.95006704 23.29185278 -37.49670209 20.09640049 -41.8125 15.60546875 C-43.41377074 12.40292728 -43.21951607 10.15232311 -42.8125 6.60546875 C-40.13853698 1.7066052 -35.9216041 -1.72418888 -30.75390625 -3.7265625 C-19.94991284 -6.18005901 -9.72225259 -5.46876708 0 0 Z " fill="#E56455" transform="translate(251.8125,100.39453125)"/>
</svg>
