<?xml version="1.0" encoding="UTF-8"?>
<svg version="1.1" xmlns="http://www.w3.org/2000/svg" width="512" height="512">
<path d="M0 0 C4.90265786 4.09488128 9.58635698 8.41355924 13.26464844 13.66650391 C17.93232629 13.05638865 22.43409294 12.17660005 27.01464844 11.10400391 C48.56271603 6.58836612 70.35195057 10.50300452 89.26464844 21.66650391 C92.82267839 24.12140894 96.05225329 26.78100611 99.26464844 29.66650391 C100.29589844 30.45025391 101.32714844 31.23400391 102.38964844 32.04150391 C117.66276606 45.98652434 126.54628411 66.24251647 128.26464844 86.66650391 C128.51107396 92.47695824 128.66953115 98.21985549 127.71777344 103.97119141 C127.21291501 107.03858885 126.8621923 109.58100686 127.26464844 112.66650391 C129.1673341 114.95431148 131.16700452 116.30927475 133.65917969 117.92822266 C144.48450807 125.1505182 152.06785218 138.88147195 154.91821289 151.46533203 C157.66406761 168.91186211 155.19278148 185.90218428 145.26464844 200.66650391 C143.95186383 202.02007405 142.61909986 203.35462856 141.26464844 204.66650391 C138.72384939 207.41452513 138.72384939 207.41452513 138.26855469 211.00634766 C138.65889302 212.82155739 139.09366115 214.62752614 139.56152344 216.42431641 C143.40099183 234.12853177 138.18841379 252.88329349 129.20214844 268.16650391 C118.34901305 284.45797828 101.31875815 296.18724014 82.10058594 300.15869141 C67.66137564 302.07019582 54.18198048 300.75232616 40.26464844 296.66650391 C38.24259528 300.12412524 36.22228059 303.58275992 34.20214844 307.04150391 C33.66009766 307.96833984 33.11804688 308.89517578 32.55957031 309.85009766 C31.64057339 311.42407028 30.7247192 313.00037703 29.84977722 314.59925842 C27.6647635 318.52643273 25.24181238 322.01546363 22.46313477 325.55102539 C7.22963057 346.26497923 9.42674966 368.8996451 10.00427246 393.5894165 C10.19703642 402.5552006 10.24742452 411.52324888 10.31226158 420.4906826 C10.34611798 423.60314701 10.41264936 426.71350443 10.48554993 429.82527161 C10.51497783 431.7219679 10.54398765 433.61867073 10.57250977 435.51538086 C10.6011058 436.37292969 10.62970184 437.23047852 10.65916443 438.11401367 C10.69856507 442.14251252 10.5751629 444.15634659 8.4329071 447.6759491 C5.36803987 450.48962918 2.91491205 450.79153547 -1.0866394 450.8069458 C-1.97543793 450.81265594 -2.86423645 450.81836609 -3.77996826 450.82424927 C-4.75250549 450.82536713 -5.72504272 450.82648499 -6.72705078 450.82763672 C-8.26647842 450.83508408 -8.26647842 450.83508408 -9.83700562 450.84268188 C-13.23802354 450.85730808 -16.63899483 450.86410596 -20.04003906 450.86962891 C-22.40031943 450.87537956 -24.76059979 450.8811373 -27.12088013 450.88690186 C-32.07228819 450.89741286 -37.02368 450.90325502 -41.97509766 450.90673828 C-48.32285215 450.91222608 -54.67039248 450.93625998 -61.01807976 450.96471024 C-65.89422231 450.98332309 -70.77031311 450.98854148 -75.64648819 450.99007416 C-77.98688046 450.99310379 -80.32727176 451.00114269 -82.66762924 451.01425934 C-85.94020702 451.03129273 -89.21225929 451.0294461 -92.48486328 451.02294922 C-93.45335205 451.032164 -94.42184082 451.04137878 -95.41967773 451.0508728 C-100.3170865 451.02037945 -103.81678719 450.95488469 -107.73535156 447.66650391 C-109.7803241 444.5990451 -109.98026963 444.08913967 -109.90615845 440.6598053 C-109.89419937 439.84631622 -109.8822403 439.03282715 -109.86991882 438.19468689 C-109.84694229 437.30503738 -109.82396576 436.41538788 -109.80029297 435.4987793 C-109.76782021 433.54778153 -109.73574511 431.59677712 -109.70401001 429.64576721 C-109.68386463 428.60778048 -109.66371925 427.56979374 -109.64296341 426.50035286 C-109.54694666 420.95651107 -109.52129373 415.41217572 -109.48535156 409.86767578 C-109.43799449 402.83232355 -109.37074586 395.79966535 -109.2109375 388.76586914 C-108.25450781 351.18447368 -108.25450781 351.18447368 -124.67987061 318.43502808 C-133.73535156 306.23821457 -133.73535156 306.23821457 -133.73535156 301.66650391 C-134.49976563 301.99263672 -135.26417969 302.31876953 -136.05175781 302.65478516 C-157.42554348 311.37405512 -181.07997926 313.04508184 -202.80957031 304.41015625 C-220.51448108 296.9108619 -235.42613841 284.58324608 -244.73535156 267.66650391 C-245.19425781 266.85697266 -245.65316406 266.04744141 -246.12597656 265.21337891 C-255.71857917 247.29948247 -258.08075834 224.2646575 -253.23535156 204.54150391 C-250.19765993 195.14534662 -246.10762468 184.34896402 -239.73535156 176.66650391 C-240.75903914 174.59082403 -241.80515467 172.53933786 -242.91894531 170.51025391 C-250.0388562 157.20200925 -251.91955734 143.18500571 -247.76660156 128.57275391 C-243.093604 115.40339714 -234.4274511 104.71036083 -221.73535156 98.66650391 C-216.65164442 96.50322427 -212.30110152 94.66650391 -206.73535156 94.66650391 C-207.06535156 93.67650391 -207.39535156 92.68650391 -207.73535156 91.66650391 C-210.63247884 69.36740303 -206.20419439 46.95447399 -192.73535156 28.66650391 C-189.91229983 25.13386051 -186.92936795 21.86587041 -183.73535156 18.66650391 C-182.97609375 17.89564453 -182.21683594 17.12478516 -181.43457031 16.33056641 C-165.30875677 0.8645652 -144.36700335 -5.75017921 -122.35107422 -5.63183594 C-109.54563447 -5.3569385 -98.63460449 -2.29662417 -87.09863281 3.14306641 C-83.53232845 4.87676148 -83.53232845 4.87676148 -79.73535156 5.66650391 C-78.00712099 4.65313095 -78.00712099 4.65313095 -76.48535156 3.04150391 C-56.12680152 -15.51692171 -21.93383134 -16.85461266 0 0 Z M-20.70410156 286.10400391 C-26.81505575 287.46199373 -32.68866924 287.85913915 -38.92285156 287.85400391 C-39.67050781 287.85464844 -40.41816406 287.85529297 -41.18847656 287.85595703 C-46.10980628 287.80821927 -50.86258048 287.35630729 -55.73535156 286.66650391 C-54.44246416 290.93184981 -52.81039162 294.56146245 -50.54785156 298.39697266 C-49.93167969 299.44691406 -49.31550781 300.49685547 -48.68066406 301.57861328 C-48.03871094 302.65949219 -47.39675781 303.74037109 -46.73535156 304.85400391 C-46.09339844 305.94648438 -45.45144531 307.03896484 -44.79003906 308.16455078 C-41.36917418 313.98192501 -41.36917418 313.98192501 -37.73535156 319.66650391 C-33.82160829 318.36192281 -33.48355015 316.94927643 -31.52050781 313.38134766 C-30.91658203 312.29273438 -30.31265625 311.20412109 -29.69042969 310.08251953 C-28.75360352 308.3606543 -28.75360352 308.3606543 -27.79785156 306.60400391 C-27.17716797 305.48316406 -26.55648437 304.36232422 -25.91699219 303.20751953 C-22.72619439 297.42058807 -19.63530028 291.60449414 -16.73535156 285.66650391 C-18.7460851 285.59419375 -18.7460851 285.59419375 -20.70410156 286.10400391 Z " fill="#8BC931" transform="translate(305.7353515625,36.33349609375)"/>
<path d="M0 0 C-2.41510886 2.60577535 -5.07551562 4.49366769 -8 6.5 C-26.62248074 20.0056036 -37.78152126 38.77852976 -41.5625 61.359375 C-44.15578267 82.93919148 -39.31729233 103.95776898 -27 122 C-24.19669132 125.54981359 -21.19447596 128.80025263 -18 132 C-17.23945313 132.77214844 -16.47890625 133.54429687 -15.6953125 134.33984375 C-0.79337714 148.63104406 17.73568998 154.69704944 38 156 C38 156.66 38 157.32 38 158 C21.5039818 164.99431172 21.5039818 164.99431172 13 166 C11.93458984 166.19335938 11.93458984 166.19335938 10.84765625 166.390625 C4.13470853 167.11897376 -0.02665269 163.76079378 -5.4609375 160.171875 C-17.88028931 152.22739925 -33.35066008 148.08384161 -48 150 C-62.02522976 155.26873711 -73.24214137 170.2405193 -80 183 C-80.47953125 183.86753906 -80.9590625 184.73507813 -81.453125 185.62890625 C-90.79221115 204.05391056 -91.70303802 226.37901783 -85.68896484 245.92822266 C-78.61403582 267.20315096 -64.99096725 284.4949427 -45 295 C-32.86793257 300.83876718 -21.40428452 303.21273136 -8 304 C-16.24440689 312.91438126 -30.22193719 314.74595324 -41.8828125 315.2890625 C-66.41633845 315.93691343 -87.80321458 308.58978877 -105.81713867 291.64868164 C-111.56989533 286.02214124 -116.10648157 280.07531844 -120 273 C-120.45890625 272.19046875 -120.9178125 271.3809375 -121.390625 270.546875 C-130.98322761 252.63297856 -133.34540678 229.5981536 -128.5 209.875 C-125.46230836 200.47884272 -121.37227311 189.68246011 -115 182 C-116.02368757 179.92432013 -117.0698031 177.87283395 -118.18359375 175.84375 C-125.30350464 162.53550534 -127.18420578 148.5185018 -123.03125 133.90625 C-118.35825244 120.73689323 -109.69209953 110.04385692 -97 104 C-91.91629286 101.83672037 -87.56574996 100 -82 100 C-82.33 99.01 -82.66 98.02 -83 97 C-85.89712728 74.70089912 -81.46884283 52.28797008 -68 34 C-65.17694827 30.4673566 -62.19401639 27.1993665 -59 24 C-58.24074219 23.22914062 -57.48148437 22.45828125 -56.69921875 21.6640625 C-41.58880899 7.17191828 -20.91171196 -0.81650936 0 0 Z " fill="#84BC22" transform="translate(181,31)"/>
<path d="M0 0 C3.55592658 1.57393471 6.28988262 3.75853638 9.3125 6.1875 C16.48132055 11.64778101 24.8440619 16.42458981 33.640625 18.67578125 C37.4727562 20.82659661 38.85141652 24.42733668 40.8125 28.25 C41.68012425 29.87806561 42.54862591 31.50566392 43.41796875 33.1328125 C43.84770996 33.94782227 44.27745117 34.76283203 44.72021484 35.60253906 C46.61523742 39.1525432 48.61351059 42.64006824 50.625 46.125 C51.60339844 47.83042969 51.60339844 47.83042969 52.6015625 49.5703125 C53.29378906 50.77300781 53.29378906 50.77300781 54 52 C54.66 52 55.32 52 56 52 C56.39268066 51.28980713 56.78536133 50.57961426 57.18994141 49.84790039 C58.99764978 46.5838792 60.81127892 43.32318366 62.625 40.0625 C63.24246094 38.94552734 63.85992187 37.82855469 64.49609375 36.67773438 C66.30290496 33.43498372 68.14139904 30.21330887 70 27 C70.49677246 26.12077881 70.99354492 25.24155762 71.50537109 24.33569336 C74.92523334 18.6835344 78.34326634 16.02798236 84.375 13.4375 C85.11105469 13.09654297 85.84710938 12.75558594 86.60546875 12.40429688 C88.39329761 11.58003811 90.19529104 10.78661305 92 10 C94.48416047 12.26625166 95.99745023 14.56850685 97.625 17.5 C103.77520951 27.8662008 110.91816468 35.40548805 121 42 C121.99 42.66 122.98 43.32 124 44 C120.02661133 50.81152344 116.05322266 57.62304688 112.07983398 64.43457031 C111.77832932 64.9786705 111.47682465 65.52277069 111.16618347 66.08335876 C110 68 110 68 108.23384094 70.28492737 C101.13471626 80.31918951 102.08372703 90.58409183 102.23828125 102.43359375 C102.23905467 104.60165068 102.23616001 106.76971171 102.2297821 108.9377594 C102.22023763 114.61273592 102.24870839 120.28678975 102.28894043 125.96160889 C102.35065965 135.06743307 102.37016388 144.17303247 102.35912132 153.27903938 C102.36322549 156.45297422 102.39351222 159.62591415 102.42610168 162.79966736 C102.42998165 164.74201286 102.43293621 166.68436051 102.43481445 168.62670898 C102.45084213 169.50625244 102.46686981 170.3857959 102.48338318 171.29199219 C102.46442069 175.35808862 102.31821223 177.47704876 100.1603241 181.02333069 C96.2204826 184.62823598 92.08222904 184.13721098 87.0402832 184.11352539 C85.82530655 184.11374443 85.82530655 184.11374443 84.58578491 184.1139679 C81.90742315 184.113271 79.22913087 184.10548903 76.55078125 184.09765625 C74.69418882 184.09579128 72.8375959 184.09436775 70.98100281 184.09336853 C66.09344119 184.0895496 61.20590926 184.07972461 56.31835938 184.06866455 C51.33138429 184.05843704 46.34440442 184.05386803 41.35742188 184.04882812 C31.57160153 184.03810181 21.78580324 184.02103284 12 184 C12.01633987 182.69804184 12.03267975 181.39608368 12.04951477 180.05467224 C12.19606708 167.68544405 12.27224321 155.31743806 12.28240681 142.94732571 C12.28981416 136.58991484 12.32060078 130.23454036 12.40795898 123.87768555 C12.4916175 117.72364717 12.50976252 111.5723584 12.48558617 105.41783333 C12.48735548 103.08940887 12.51133896 100.7608741 12.55968666 98.43295097 C12.89446009 81.2906463 9.26504893 69.91413421 -0.24984169 55.63858223 C-2.69599848 51.95069537 -4.99806072 48.17845176 -7.3131361 44.4074316 C-9.25125689 41.26493094 -11.22996241 38.14948284 -13.21826172 35.03857422 C-14.25395531 32.33774926 -13.8084922 30.73794413 -13 28 C-11.80078125 25.78125 -11.80078125 25.78125 -10.3125 23.5 C-5.84581472 16.30367372 -1.32862874 8.45633117 0 0 Z " fill="#B4E055" transform="translate(214,303)"/>
<path d="M0 0 C3.16115776 1.36983503 3.9927092 1.9890638 6 5 C3.86718509 13.9882914 -0.83313632 25.01592814 -6.8125 32.16796875 C-8.25252898 33.96389889 -8.25252898 33.96389889 -7.73388672 36.3112793 C-6.96026447 39.14557799 -5.90794434 41.3073965 -4.4453125 43.8515625 C-3.91164062 44.78742188 -3.37796875 45.72328125 -2.828125 46.6875 C-2.26609375 47.656875 -1.7040625 48.62625 -1.125 49.625 C-0.60164063 50.54023438 -0.07828125 51.45546875 0.4609375 52.3984375 C1.0075 53.35234375 1.5540625 54.30625 2.1171875 55.2890625 C2.67495377 56.28424393 3.23272003 57.27942535 3.80738831 58.30476379 C5.32714141 60.9473462 6.98499136 63.42951522 8.74766541 65.91581726 C17.85079589 79.27834574 18.47931081 90.65097645 18.07421875 106.48046875 C18.05364784 108.87466316 18.03801562 111.26890455 18.02705383 113.66316223 C17.98548105 119.89989931 17.87781284 126.1337216 17.75531006 132.36932373 C17.64184515 138.7581847 17.59234592 145.14752667 17.53710938 151.53710938 C17.41989449 164.02600532 17.23269225 176.51275831 17 189 C13.27098186 189.08736736 9.54222835 189.14051482 5.8125 189.1875 C4.75740234 189.21263672 3.70230469 189.23777344 2.61523438 189.26367188 C1.08286133 189.27817383 1.08286133 189.27817383 -0.48046875 189.29296875 C-1.41785889 189.3086792 -2.35524902 189.32438965 -3.32104492 189.34057617 C-6.55787288 188.92907749 -8.3796095 187.9183649 -11 186 C-13.04497254 182.9325412 -13.24491807 182.42263577 -13.17080688 178.99330139 C-13.15884781 178.17981232 -13.14688873 177.36632324 -13.13456726 176.52818298 C-13.10010246 175.19370872 -13.10010246 175.19370872 -13.06494141 173.83227539 C-13.03246864 171.88127762 -13.00039355 169.93027321 -12.96865845 167.97926331 C-12.94851307 166.94127657 -12.92836769 165.90328983 -12.90761185 164.83384895 C-12.8115951 159.29000717 -12.78594217 153.74567181 -12.75 148.20117188 C-12.70264293 141.16581965 -12.6353943 134.13316145 -12.47558594 127.09936523 C-11.50801684 89.60995539 -11.50801684 89.60995539 -27.86199951 56.94137573 C-31.74312297 51.601881 -34.83193426 45.78181472 -38 40 C-35.34738673 37.2431059 -32.5412263 35.31704629 -29.3125 33.25 C-16.44983881 24.7109224 -6.84106203 13.93416319 0 0 Z " fill="#9ED342" transform="translate(209,298)"/>
<path d="M0 0 C0 3.94115606 -1.77075374 5.03695822 -4.28125 7.8671875 C-13.63193953 19.47054315 -17.91873941 35.25305457 -17 50 C-15.03239563 66.78690315 -7.73890457 81.98439937 5.3125 92.94140625 C16.50514244 101.24620345 28.96888267 105.35968343 42.8125 105.3125 C43.74642578 105.32861328 44.68035156 105.34472656 45.64257812 105.36132812 C51.51880489 105.36540601 56.38103294 104.55278267 61.9128418 102.54760742 C64 102 64 102 67 103 C50.46910112 114 50.46910112 114 44 114 C48.64587833 127.46662428 55.01261438 137.84304926 65 148 C65.68707031 148.69996094 66.37414062 149.39992187 67.08203125 150.12109375 C75.78296891 158.40232013 86.72329171 164.05055378 98 168 C98 168.99 98 169.98 98 171 C94.30008848 174.35412539 89.82472467 177.680127 84.7578125 178.25390625 C82.29096117 177.80242591 80.29235494 177.02834614 78 176 C76.90429688 175.525625 75.80859375 175.05125 74.6796875 174.5625 C66.96694151 170.96432909 60.32006484 166.7350671 54 161 C53.16855469 160.26136719 52.33710938 159.52273437 51.48046875 158.76171875 C39.24603678 147.27901839 31.03072388 132.53122116 28 116 C26.7625 116.061875 25.525 116.12375 24.25 116.1875 C8.73290868 116.09066948 -5.5882448 108.70279077 -16.375 97.88671875 C-27.77320147 85.35208946 -33.6805918 69.18996294 -33.30859375 52.296875 C-31.75461809 35.69490722 -24.73079917 20.91553617 -13 9 C-8.92524136 5.64844356 -4.73519292 2.36759646 0 0 Z " fill="#84BC22" transform="translate(241,31)"/>
<path d="M0 0 C3.54971295 1.56751343 6.24591087 3.74982432 9.25 6.1875 C13.94321065 9.83563677 18.74192753 12.56100489 24.1875 14.9375 C24.8278418 15.21940186 25.46818359 15.50130371 26.12792969 15.79174805 C42.33850369 22.54753163 62.34449293 22.43739211 78.73046875 16.44921875 C82.42375654 14.81217004 85.92203838 13.03740507 89.30078125 10.8203125 C91 10 91 10 94 11 C95.640625 13.36328125 95.640625 13.36328125 97.25 16.3125 C97.79140625 17.27800781 98.3328125 18.24351562 98.890625 19.23828125 C100 22 100 22 100.06640625 24.078125 C98.36783089 27.13929378 95.59567885 28.65358753 92.6875 30.4375 C91.74233521 31.02736694 91.74233521 31.02736694 90.77807617 31.62915039 C74.09378754 41.79492625 54.91715849 45.04749656 35.8125 40.5 C23.46885102 37.22324995 12.38108127 30.58949991 3 22 C2.25105469 21.36320312 1.50210938 20.72640625 0.73046875 20.0703125 C-1.33462997 18.10392787 -2.78400248 16.58223412 -4 14 C-3.70603511 10.32821219 -2.45865081 7.35033857 -1 4 C-0.63914313 2.67385099 -0.29553418 1.34221773 0 0 Z " fill="#84BC22" transform="translate(214,283)"/>
<path d="M0 0 C2.19036865 1.59552002 2.19036865 1.59552002 4 4 C4.48101807 7.17645264 4.48101807 7.17645264 4.45410156 10.97167969 C4.45468567 11.6647673 4.45526978 12.35785492 4.45587158 13.07194519 C4.45309169 15.35577015 4.42200707 17.63827897 4.390625 19.921875 C4.3831622 21.50798835 4.37746945 23.09411094 4.37347412 24.68023682 C4.35822065 28.84960503 4.31894187 33.01841356 4.2746582 37.18756104 C4.23369898 41.44397409 4.21546175 45.70047781 4.1953125 49.95703125 C4.15244668 58.30497265 4.08209973 66.65235216 4 75 C-0.95 75 -5.9 75 -11 75 C-11.09036614 65.81184866 -11.1637531 56.62399242 -11.20724869 47.43549728 C-11.22812433 43.16890708 -11.25644109 38.90263664 -11.30175781 34.63623047 C-11.3452171 30.51893216 -11.36913728 26.40194143 -11.37950897 22.28443146 C-11.38690027 20.7135153 -11.40133388 19.14261598 -11.42292023 17.57183075 C-11.45195682 15.37141031 -11.45595612 13.17226087 -11.45410156 10.97167969 C-11.46298401 9.71925476 -11.47186646 8.46682983 -11.48101807 7.17645264 C-11 4 -11 4 -9.19036865 1.59552002 C-5.99382058 -0.73292658 -3.85307582 -0.5504394 0 0 Z " fill="#D2F377" transform="translate(250,412)"/>
<path d="M0 0 C3.079156 0.80377201 4.11774112 1.97996028 6.03515625 4.53125 C6.59196864 7.50869315 6.50067744 10.43323738 6.42578125 13.453125 C6.42012146 14.31311096 6.41446167 15.17309692 6.40863037 16.05914307 C6.38627576 18.80041649 6.33608227 21.54037304 6.28515625 24.28125 C6.26509001 26.14190818 6.24683946 28.00258689 6.23046875 29.86328125 C6.18641409 34.41977666 6.11739379 38.97529022 6.03515625 43.53125 C1.08515625 43.53125 -3.86484375 43.53125 -8.96484375 43.53125 C-9.03904402 38.05032306 -9.09346955 32.56968901 -9.12963867 27.08837891 C-9.14471789 25.22406928 -9.16518436 23.35979508 -9.19116211 21.49560547 C-9.22758371 18.81468967 -9.24457865 16.1342432 -9.2578125 13.453125 C-9.27329636 12.62069275 -9.28878021 11.7882605 -9.30473328 10.93060303 C-9.30573865 7.46756417 -9.26722947 5.13172734 -7.69262695 2.00488281 C-5.30947915 -0.02771294 -3.04954191 0.04700643 0 0 Z " fill="#D2F376" transform="translate(283.96484375,443.46875)"/>
<path d="M0 0 C5.54344057 4.409555 5.54344057 4.409555 7.8515625 7.39453125 C14.08378174 14.9525135 23.13192948 20.09569462 32 24 C30.62712658 27.69876091 28.93644547 30.9514476 26.875 34.3125 C26.33617187 35.19550781 25.79734375 36.07851563 25.2421875 36.98828125 C24.83226562 37.65214844 24.42234375 38.31601562 24 39 C15.92938518 38.13108344 9.49201934 30.88431624 4.39453125 24.984375 C-7 10.09704774 -7 10.09704774 -7 5 C-5.46875 3.7109375 -5.46875 3.7109375 -3.5 2.375 C-2.8503125 1.92898438 -2.200625 1.48296875 -1.53125 1.0234375 C-1.0259375 0.68570312 -0.520625 0.34796875 0 0 Z " fill="#9ED342" transform="translate(314,307)"/>
<path d="M0 0 C3.625 0.375 3.625 0.375 6.0625 1.9375 C8.15211776 5.19730371 8.38722369 7.66191142 7.625 11.375 C5.83033617 15.33860388 3.59718659 18.9897554 1.3125 22.6875 C0.42014648 24.18893555 0.42014648 24.18893555 -0.49023438 25.72070312 C-4.94106613 33.08571075 -4.94106613 33.08571075 -8.375 35.375 C-11.9522533 35.83167063 -13.70958305 35.81277431 -16.75 33.8125 C-18.45990732 31.24763903 -18.90394874 29.62327837 -18.82958984 26.55737305 C-17.79311722 21.58152514 -14.6521912 17.32335148 -12 13.0625 C-11.39671875 12.06154297 -10.7934375 11.06058594 -10.171875 10.02929688 C-4.37232418 0.4858138 -4.37232418 0.4858138 0 0 Z " fill="#D2F377" transform="translate(297.375,355.625)"/>
<path d="M0 0 C3.35853277 2.93796516 4.27173787 5.36980154 4.56640625 9.6875 C4.58622777 11.45822287 4.58431296 13.22930054 4.5625 15 C4.58634766 15.88945312 4.61019531 16.77890625 4.63476562 17.6953125 C4.62457993 22.24492483 4.46630161 24.37037448 1.69140625 28.1171875 C-1 30 -1 30 -4.625 30.125 C-8 29 -8 29 -9.68359375 27.05859375 C-11.57207274 22.67082208 -11.47499083 18.66475296 -11.4375 13.9375 C-11.45748047 13.03966797 -11.47746094 12.14183594 -11.49804688 11.21679688 C-11.49320553 4.70518804 -11.49320553 4.70518804 -9.19140625 1.4140625 C-5.9319868 -0.6891636 -3.78680465 -0.6085936 0 0 Z " fill="#D2F377" transform="translate(250,372)"/>
<path d="M0 0 C2.5 2.0625 2.5 2.0625 4 5 C4 10.43694727 2.32528915 13.76781381 -1 18 C-4.12860495 19.56430248 -6.55602925 19.35627284 -10 19 C-12.5 16.9375 -12.5 16.9375 -14 14 C-14 8.56305273 -12.32528915 5.23218619 -9 1 C-5.87139505 -0.56430248 -3.44397075 -0.35627284 0 0 Z " fill="#D1F376" transform="translate(316,331)"/>
<path d="M0 0 C2.4375 1.625 2.4375 1.625 4 4 C4.5625 6.9375 4.5625 6.9375 4 10 C1.9375 12.9375 1.9375 12.9375 -1 15 C-4.85210127 15.06641554 -6.99848005 14.87229157 -9.9375 12.3125 C-11.33817538 9.26397123 -11.4842732 7.32073048 -11 4 C-8.05899778 -0.47032338 -5.13105401 -0.73300772 0 0 Z " fill="#B2DE53" transform="translate(147,200)"/>
<path d="M0 0 C2.4375 1.625 2.4375 1.625 4 4 C4.5625 6.9375 4.5625 6.9375 4 10 C1.70985284 13.0099077 0.20864386 14.69783903 -3.5 15.625 C-7.20864386 14.69783903 -8.70985284 13.0099077 -11 10 C-11.6767545 6.31544773 -11.49791771 4.75683492 -9.4375 1.625 C-6.06489221 -0.62340519 -3.97487617 -0.56783945 0 0 Z " fill="#B1DE53" transform="translate(166,113)"/>
<path d="M0 0 C2.375 1.5625 2.375 1.5625 4 4 C4.56783945 7.97487617 4.62340519 10.06489221 2.375 13.4375 C-0.71685231 15.47161336 -2.36367425 15.60605429 -6 15 C-8.375 13.4375 -8.375 13.4375 -10 11 C-10.56783945 7.02512383 -10.62340519 4.93510779 -8.375 1.5625 C-5.28314769 -0.47161336 -3.63632575 -0.60605429 0 0 Z " fill="#B2DF53" transform="translate(269,255)"/>
<path d="M0 0 C2.5625 1.5625 2.5625 1.5625 4 4 C3.93913078 7.46954545 3.6274029 9.91947278 1.875 12.9375 C-1.18452459 14.6712306 -3.56817525 14.42145216 -7 14 C-9.4375 12.4375 -9.4375 12.4375 -11 10 C-11.42213381 6.56262469 -11.60856522 4.17909511 -10 1.0625 C-6.75462393 -0.66160604 -3.53203487 -0.62413468 0 0 Z " fill="#B2DF53" transform="translate(199,93)"/>
<path d="M0 0 C1.875 1.125 1.875 1.125 3 3 C3.49573337 6.89504791 3.58016848 9.09493717 1.4375 12.4375 C-1.90506283 14.58016848 -4.10495209 14.49573337 -8 14 C-9.9375 13 -9.9375 13 -11 11 C-11.39302445 7.90493248 -11.62908496 5.95551234 -11 3 C-7.56705737 -1.13972494 -5.05326616 -1.64780418 0 0 Z " fill="#B2DF53" transform="translate(386,103)"/>
<path d="M0 0 C2.48038907 3.7205836 2.46337203 5.59796571 2 10 C0.375 12.4375 0.375 12.4375 -2 14 C-5.63632575 14.60605429 -7.28314769 14.47161336 -10.375 12.4375 C-12.62340519 9.06489221 -12.56783945 6.97487617 -12 3 C-8.85540137 -2.24099771 -5.33719896 -1.29125781 0 0 Z " fill="#B2DF54" transform="translate(244,207)"/>
<path d="M0 0 C2.375 1.5625 2.375 1.5625 4 4 C4.46337203 8.40203429 4.48038907 10.2794164 2 14 C-4.88888889 15.66666667 -4.88888889 15.66666667 -8.5 13.5 C-10.55619196 10.0730134 -10.56158278 7.93107944 -10 4 C-7.26646839 -0.10029741 -4.80388991 -0.80064832 0 0 Z " fill="#B2DF54" transform="translate(164,73)"/>
<path d="M0 0 C2 1 2 1 3 3 C3.51981506 6.56444611 3.63102777 9.73794446 2 13 C-1.26205554 14.63102777 -4.43555389 14.51981506 -8 14 C-10 13 -10 13 -11 11 C-11.51981506 7.43555389 -11.63102777 4.26205554 -10 1 C-6.73794446 -0.63102777 -3.56444611 -0.51981506 0 0 Z " fill="#B2DF54" transform="translate(407,262)"/>
<path d="M0 0 C2 1 2 1 3 3 C3.51981506 6.56444611 3.63102777 9.73794446 2 13 C-1.26205554 14.63102777 -4.43555389 14.51981506 -8 14 C-10 13 -10 13 -11 11 C-11.51981506 7.43555389 -11.63102777 4.26205554 -10 1 C-6.73794446 -0.63102777 -3.56444611 -0.51981506 0 0 Z " fill="#B2DF54" transform="translate(129,259)"/>
<path d="M0 0 C2 1 2 1 3 3 C3.51981506 6.56444611 3.63102777 9.73794446 2 13 C-1.26205554 14.63102777 -4.43555389 14.51981506 -8 14 C-10 13 -10 13 -11 11 C-11.51981506 7.43555389 -11.63102777 4.26205554 -10 1 C-6.73794446 -0.63102777 -3.56444611 -0.51981506 0 0 Z " fill="#B2DF54" transform="translate(381,244)"/>
</svg>
